<mxfile host="app.diagrams.net" modified="2023-10-17T15:29:46.864Z" agent="Mozilla/5.0 (Windows NT 10.0; Win64; x64) AppleWebKit/537.36 (KHTML, like Gecko) Chrome/118.0.0.0 Safari/537.36" etag="1TGC4KdwM1RUQIzItGSG" version="22.0.4" type="github">
  <diagram name="Page-1" id="n1OnS5eiFAUQkkmlN_Pn">
    <mxGraphModel dx="1105" dy="562" grid="1" gridSize="10" guides="1" tooltips="1" connect="1" arrows="1" fold="1" page="1" pageScale="1" pageWidth="850" pageHeight="1100" math="0" shadow="0">
      <root>
        <mxCell id="0" />
        <mxCell id="1" parent="0" />
        <mxCell id="MDAO08NL7lkBEBGCFYoP-36" style="edgeStyle=orthogonalEdgeStyle;rounded=0;orthogonalLoop=1;jettySize=auto;html=1;" edge="1" parent="1" source="MDAO08NL7lkBEBGCFYoP-16" target="MDAO08NL7lkBEBGCFYoP-33">
          <mxGeometry relative="1" as="geometry" />
        </mxCell>
        <mxCell id="MDAO08NL7lkBEBGCFYoP-16" value="employeeID" style="ellipse;whiteSpace=wrap;html=1;align=center;fontStyle=4;fillColor=#e1d5e7;strokeColor=#9673a6;" vertex="1" parent="1">
          <mxGeometry x="340" y="330" width="100" height="40" as="geometry" />
        </mxCell>
        <mxCell id="MDAO08NL7lkBEBGCFYoP-37" style="edgeStyle=orthogonalEdgeStyle;rounded=0;orthogonalLoop=1;jettySize=auto;html=1;" edge="1" parent="1" source="MDAO08NL7lkBEBGCFYoP-18" target="MDAO08NL7lkBEBGCFYoP-33">
          <mxGeometry relative="1" as="geometry" />
        </mxCell>
        <mxCell id="MDAO08NL7lkBEBGCFYoP-18" value="address" style="ellipse;whiteSpace=wrap;html=1;align=center;" vertex="1" parent="1">
          <mxGeometry x="340" y="260" width="100" height="40" as="geometry" />
        </mxCell>
        <mxCell id="MDAO08NL7lkBEBGCFYoP-38" style="edgeStyle=orthogonalEdgeStyle;rounded=0;orthogonalLoop=1;jettySize=auto;html=1;entryX=0.5;entryY=1;entryDx=0;entryDy=0;" edge="1" parent="1" source="MDAO08NL7lkBEBGCFYoP-21" target="MDAO08NL7lkBEBGCFYoP-33">
          <mxGeometry relative="1" as="geometry">
            <Array as="points">
              <mxPoint x="250" y="310" />
              <mxPoint x="250" y="310" />
            </Array>
          </mxGeometry>
        </mxCell>
        <mxCell id="MDAO08NL7lkBEBGCFYoP-21" value="fullName" style="ellipse;whiteSpace=wrap;html=1;align=center;" vertex="1" parent="1">
          <mxGeometry x="200" y="100" width="100" height="40" as="geometry" />
        </mxCell>
        <mxCell id="MDAO08NL7lkBEBGCFYoP-39" style="edgeStyle=orthogonalEdgeStyle;rounded=0;orthogonalLoop=1;jettySize=auto;html=1;" edge="1" parent="1" source="MDAO08NL7lkBEBGCFYoP-26" target="MDAO08NL7lkBEBGCFYoP-33">
          <mxGeometry relative="1" as="geometry" />
        </mxCell>
        <mxCell id="MDAO08NL7lkBEBGCFYoP-26" value="phoneNum" style="ellipse;shape=doubleEllipse;margin=3;whiteSpace=wrap;html=1;align=center;" vertex="1" parent="1">
          <mxGeometry x="350" y="170" width="100" height="40" as="geometry" />
        </mxCell>
        <mxCell id="MDAO08NL7lkBEBGCFYoP-40" style="edgeStyle=orthogonalEdgeStyle;rounded=0;orthogonalLoop=1;jettySize=auto;html=1;entryX=0.5;entryY=1;entryDx=0;entryDy=0;" edge="1" parent="1">
          <mxGeometry relative="1" as="geometry">
            <mxPoint x="167.5" y="200" as="sourcePoint" />
            <mxPoint x="250" y="440" as="targetPoint" />
          </mxGeometry>
        </mxCell>
        <mxCell id="MDAO08NL7lkBEBGCFYoP-28" value="email" style="ellipse;whiteSpace=wrap;html=1;align=center;" vertex="1" parent="1">
          <mxGeometry x="120" y="180" width="95" height="40" as="geometry" />
        </mxCell>
        <mxCell id="MDAO08NL7lkBEBGCFYoP-69" style="edgeStyle=orthogonalEdgeStyle;rounded=0;orthogonalLoop=1;jettySize=auto;html=1;" edge="1" parent="1" source="MDAO08NL7lkBEBGCFYoP-31" target="MDAO08NL7lkBEBGCFYoP-33">
          <mxGeometry relative="1" as="geometry" />
        </mxCell>
        <mxCell id="MDAO08NL7lkBEBGCFYoP-31" value="jobPosition" style="ellipse;whiteSpace=wrap;html=1;align=center;" vertex="1" parent="1">
          <mxGeometry y="230" width="100" height="40" as="geometry" />
        </mxCell>
        <mxCell id="MDAO08NL7lkBEBGCFYoP-33" value="employee" style="whiteSpace=wrap;html=1;align=center;fillColor=#f8cecc;strokeColor=#b85450;" vertex="1" parent="1">
          <mxGeometry x="200" y="420" width="100" height="40" as="geometry" />
        </mxCell>
        <mxCell id="MDAO08NL7lkBEBGCFYoP-42" value="Customer" style="whiteSpace=wrap;html=1;align=center;fillColor=#f8cecc;strokeColor=#b85450;" vertex="1" parent="1">
          <mxGeometry x="630" y="280" width="100" height="40" as="geometry" />
        </mxCell>
        <mxCell id="MDAO08NL7lkBEBGCFYoP-67" style="edgeStyle=orthogonalEdgeStyle;rounded=0;orthogonalLoop=1;jettySize=auto;html=1;entryX=0.5;entryY=0;entryDx=0;entryDy=0;" edge="1" parent="1" source="MDAO08NL7lkBEBGCFYoP-44" target="MDAO08NL7lkBEBGCFYoP-42">
          <mxGeometry relative="1" as="geometry" />
        </mxCell>
        <mxCell id="MDAO08NL7lkBEBGCFYoP-44" value="address" style="ellipse;whiteSpace=wrap;html=1;align=center;" vertex="1" parent="1">
          <mxGeometry x="740" y="100" width="110" height="40" as="geometry" />
        </mxCell>
        <mxCell id="MDAO08NL7lkBEBGCFYoP-63" style="edgeStyle=orthogonalEdgeStyle;rounded=0;orthogonalLoop=1;jettySize=auto;html=1;" edge="1" parent="1" source="MDAO08NL7lkBEBGCFYoP-45" target="MDAO08NL7lkBEBGCFYoP-42">
          <mxGeometry relative="1" as="geometry" />
        </mxCell>
        <mxCell id="MDAO08NL7lkBEBGCFYoP-45" value="customerID" style="ellipse;whiteSpace=wrap;html=1;align=center;fontStyle=4;fillColor=#e1d5e7;strokeColor=#9673a6;" vertex="1" parent="1">
          <mxGeometry x="510" y="190" width="100" height="40" as="geometry" />
        </mxCell>
        <mxCell id="MDAO08NL7lkBEBGCFYoP-68" style="edgeStyle=orthogonalEdgeStyle;rounded=0;orthogonalLoop=1;jettySize=auto;html=1;entryX=0.5;entryY=0;entryDx=0;entryDy=0;" edge="1" parent="1" source="MDAO08NL7lkBEBGCFYoP-46" target="MDAO08NL7lkBEBGCFYoP-42">
          <mxGeometry relative="1" as="geometry" />
        </mxCell>
        <mxCell id="MDAO08NL7lkBEBGCFYoP-46" value="phoneNum" style="ellipse;whiteSpace=wrap;html=1;align=center;" vertex="1" parent="1">
          <mxGeometry x="745" y="160" width="100" height="40" as="geometry" />
        </mxCell>
        <mxCell id="MDAO08NL7lkBEBGCFYoP-66" style="edgeStyle=orthogonalEdgeStyle;rounded=0;orthogonalLoop=1;jettySize=auto;html=1;" edge="1" parent="1" source="MDAO08NL7lkBEBGCFYoP-47" target="MDAO08NL7lkBEBGCFYoP-42">
          <mxGeometry relative="1" as="geometry" />
        </mxCell>
        <mxCell id="MDAO08NL7lkBEBGCFYoP-47" value="fullName" style="ellipse;whiteSpace=wrap;html=1;align=center;" vertex="1" parent="1">
          <mxGeometry x="630" y="70" width="100" height="30" as="geometry" />
        </mxCell>
        <mxCell id="MDAO08NL7lkBEBGCFYoP-65" style="edgeStyle=orthogonalEdgeStyle;rounded=0;orthogonalLoop=1;jettySize=auto;html=1;" edge="1" parent="1" source="MDAO08NL7lkBEBGCFYoP-50" target="MDAO08NL7lkBEBGCFYoP-42">
          <mxGeometry relative="1" as="geometry" />
        </mxCell>
        <mxCell id="MDAO08NL7lkBEBGCFYoP-50" value="email" style="ellipse;whiteSpace=wrap;html=1;align=center;" vertex="1" parent="1">
          <mxGeometry x="500" y="120" width="100" height="40" as="geometry" />
        </mxCell>
        <mxCell id="MDAO08NL7lkBEBGCFYoP-70" value="Table" style="whiteSpace=wrap;html=1;align=center;fillColor=#f8cecc;strokeColor=#b85450;" vertex="1" parent="1">
          <mxGeometry x="560" y="530" width="100" height="40" as="geometry" />
        </mxCell>
        <mxCell id="MDAO08NL7lkBEBGCFYoP-76" style="edgeStyle=orthogonalEdgeStyle;rounded=0;orthogonalLoop=1;jettySize=auto;html=1;entryX=0.5;entryY=0;entryDx=0;entryDy=0;" edge="1" parent="1" source="MDAO08NL7lkBEBGCFYoP-74" target="MDAO08NL7lkBEBGCFYoP-70">
          <mxGeometry relative="1" as="geometry" />
        </mxCell>
        <mxCell id="MDAO08NL7lkBEBGCFYoP-74" value="chair" style="ellipse;whiteSpace=wrap;html=1;align=center;" vertex="1" parent="1">
          <mxGeometry x="700" y="490" width="100" height="40" as="geometry" />
        </mxCell>
        <mxCell id="MDAO08NL7lkBEBGCFYoP-78" style="edgeStyle=orthogonalEdgeStyle;rounded=0;orthogonalLoop=1;jettySize=auto;html=1;entryX=1;entryY=0.5;entryDx=0;entryDy=0;" edge="1" parent="1" source="MDAO08NL7lkBEBGCFYoP-77" target="MDAO08NL7lkBEBGCFYoP-70">
          <mxGeometry relative="1" as="geometry" />
        </mxCell>
        <mxCell id="MDAO08NL7lkBEBGCFYoP-77" value="tableID" style="ellipse;whiteSpace=wrap;html=1;align=center;fontStyle=4;fillColor=#e1d5e7;strokeColor=#9673a6;" vertex="1" parent="1">
          <mxGeometry x="700" y="560" width="100" height="40" as="geometry" />
        </mxCell>
        <mxCell id="MDAO08NL7lkBEBGCFYoP-80" value="menu&lt;br&gt;" style="whiteSpace=wrap;html=1;align=center;fillColor=#f8cecc;strokeColor=#b85450;" vertex="1" parent="1">
          <mxGeometry x="570" y="980" width="100" height="40" as="geometry" />
        </mxCell>
        <mxCell id="MDAO08NL7lkBEBGCFYoP-85" style="edgeStyle=orthogonalEdgeStyle;rounded=0;orthogonalLoop=1;jettySize=auto;html=1;" edge="1" parent="1" source="MDAO08NL7lkBEBGCFYoP-81" target="MDAO08NL7lkBEBGCFYoP-80">
          <mxGeometry relative="1" as="geometry" />
        </mxCell>
        <mxCell id="MDAO08NL7lkBEBGCFYoP-81" value="menuID" style="ellipse;whiteSpace=wrap;html=1;align=center;fontStyle=4;fillColor=#e1d5e7;strokeColor=#9673a6;" vertex="1" parent="1">
          <mxGeometry x="710" y="790" width="100" height="40" as="geometry" />
        </mxCell>
        <mxCell id="MDAO08NL7lkBEBGCFYoP-86" style="edgeStyle=orthogonalEdgeStyle;rounded=0;orthogonalLoop=1;jettySize=auto;html=1;" edge="1" parent="1" source="MDAO08NL7lkBEBGCFYoP-82" target="MDAO08NL7lkBEBGCFYoP-80">
          <mxGeometry relative="1" as="geometry" />
        </mxCell>
        <mxCell id="MDAO08NL7lkBEBGCFYoP-82" value="price" style="ellipse;whiteSpace=wrap;html=1;align=center;" vertex="1" parent="1">
          <mxGeometry x="710" y="870" width="100" height="40" as="geometry" />
        </mxCell>
        <mxCell id="MDAO08NL7lkBEBGCFYoP-87" style="edgeStyle=orthogonalEdgeStyle;rounded=0;orthogonalLoop=1;jettySize=auto;html=1;entryX=0.5;entryY=1;entryDx=0;entryDy=0;" edge="1" parent="1" source="MDAO08NL7lkBEBGCFYoP-83" target="MDAO08NL7lkBEBGCFYoP-80">
          <mxGeometry relative="1" as="geometry" />
        </mxCell>
        <mxCell id="MDAO08NL7lkBEBGCFYoP-83" value="name" style="ellipse;whiteSpace=wrap;html=1;align=center;" vertex="1" parent="1">
          <mxGeometry x="745" y="970" width="100" height="40" as="geometry" />
        </mxCell>
        <mxCell id="MDAO08NL7lkBEBGCFYoP-88" style="edgeStyle=orthogonalEdgeStyle;rounded=0;orthogonalLoop=1;jettySize=auto;html=1;" edge="1" parent="1" source="MDAO08NL7lkBEBGCFYoP-84" target="MDAO08NL7lkBEBGCFYoP-80">
          <mxGeometry relative="1" as="geometry" />
        </mxCell>
        <mxCell id="MDAO08NL7lkBEBGCFYoP-84" value="describe" style="ellipse;whiteSpace=wrap;html=1;align=center;" vertex="1" parent="1">
          <mxGeometry x="620" y="1060" width="100" height="40" as="geometry" />
        </mxCell>
        <mxCell id="MDAO08NL7lkBEBGCFYoP-89" value="Order" style="whiteSpace=wrap;html=1;align=center;fillColor=#f8cecc;strokeColor=#b85450;" vertex="1" parent="1">
          <mxGeometry x="180" y="670" width="100" height="40" as="geometry" />
        </mxCell>
        <mxCell id="MDAO08NL7lkBEBGCFYoP-93" style="edgeStyle=orthogonalEdgeStyle;rounded=0;orthogonalLoop=1;jettySize=auto;html=1;" edge="1" parent="1" source="MDAO08NL7lkBEBGCFYoP-90" target="MDAO08NL7lkBEBGCFYoP-89">
          <mxGeometry relative="1" as="geometry" />
        </mxCell>
        <mxCell id="MDAO08NL7lkBEBGCFYoP-90" value="date" style="ellipse;whiteSpace=wrap;html=1;align=center;" vertex="1" parent="1">
          <mxGeometry x="100" y="580" width="100" height="40" as="geometry" />
        </mxCell>
        <mxCell id="MDAO08NL7lkBEBGCFYoP-94" style="edgeStyle=orthogonalEdgeStyle;rounded=0;orthogonalLoop=1;jettySize=auto;html=1;" edge="1" parent="1" source="MDAO08NL7lkBEBGCFYoP-91" target="MDAO08NL7lkBEBGCFYoP-89">
          <mxGeometry relative="1" as="geometry" />
        </mxCell>
        <mxCell id="MDAO08NL7lkBEBGCFYoP-91" value="orderID" style="ellipse;whiteSpace=wrap;html=1;align=center;fontStyle=4;fillColor=#e1d5e7;strokeColor=#9673a6;" vertex="1" parent="1">
          <mxGeometry x="40" y="670" width="100" height="40" as="geometry" />
        </mxCell>
        <mxCell id="MDAO08NL7lkBEBGCFYoP-95" style="edgeStyle=orthogonalEdgeStyle;rounded=0;orthogonalLoop=1;jettySize=auto;html=1;" edge="1" parent="1" source="MDAO08NL7lkBEBGCFYoP-92" target="MDAO08NL7lkBEBGCFYoP-89">
          <mxGeometry relative="1" as="geometry" />
        </mxCell>
        <mxCell id="MDAO08NL7lkBEBGCFYoP-92" value="sumPrice" style="ellipse;whiteSpace=wrap;html=1;align=center;" vertex="1" parent="1">
          <mxGeometry x="60" y="780" width="100" height="40" as="geometry" />
        </mxCell>
        <mxCell id="MDAO08NL7lkBEBGCFYoP-96" value="dish" style="whiteSpace=wrap;html=1;align=center;fillColor=#f8cecc;strokeColor=#b85450;" vertex="1" parent="1">
          <mxGeometry x="215" y="910" width="100" height="40" as="geometry" />
        </mxCell>
        <mxCell id="MDAO08NL7lkBEBGCFYoP-103" style="edgeStyle=orthogonalEdgeStyle;rounded=0;orthogonalLoop=1;jettySize=auto;html=1;" edge="1" parent="1" source="MDAO08NL7lkBEBGCFYoP-97" target="MDAO08NL7lkBEBGCFYoP-96">
          <mxGeometry relative="1" as="geometry" />
        </mxCell>
        <mxCell id="MDAO08NL7lkBEBGCFYoP-97" value="dishID" style="ellipse;whiteSpace=wrap;html=1;align=center;fontStyle=4;fillColor=#e1d5e7;strokeColor=#9673a6;" vertex="1" parent="1">
          <mxGeometry x="60" y="900" width="100" height="40" as="geometry" />
        </mxCell>
        <mxCell id="MDAO08NL7lkBEBGCFYoP-98" value="dishName" style="ellipse;whiteSpace=wrap;html=1;align=center;" vertex="1" parent="1">
          <mxGeometry x="40" y="980" width="100" height="40" as="geometry" />
        </mxCell>
        <mxCell id="MDAO08NL7lkBEBGCFYoP-105" style="edgeStyle=orthogonalEdgeStyle;rounded=0;orthogonalLoop=1;jettySize=auto;html=1;" edge="1" parent="1" source="MDAO08NL7lkBEBGCFYoP-99" target="MDAO08NL7lkBEBGCFYoP-96">
          <mxGeometry relative="1" as="geometry" />
        </mxCell>
        <mxCell id="MDAO08NL7lkBEBGCFYoP-99" value="decribe" style="ellipse;whiteSpace=wrap;html=1;align=center;" vertex="1" parent="1">
          <mxGeometry x="80" y="1040" width="100" height="40" as="geometry" />
        </mxCell>
        <mxCell id="MDAO08NL7lkBEBGCFYoP-106" style="edgeStyle=orthogonalEdgeStyle;rounded=0;orthogonalLoop=1;jettySize=auto;html=1;" edge="1" parent="1" source="MDAO08NL7lkBEBGCFYoP-100" target="MDAO08NL7lkBEBGCFYoP-96">
          <mxGeometry relative="1" as="geometry" />
        </mxCell>
        <mxCell id="MDAO08NL7lkBEBGCFYoP-100" value="price" style="ellipse;whiteSpace=wrap;html=1;align=center;" vertex="1" parent="1">
          <mxGeometry x="290" y="1070" width="100" height="40" as="geometry" />
        </mxCell>
        <mxCell id="MDAO08NL7lkBEBGCFYoP-104" style="edgeStyle=orthogonalEdgeStyle;rounded=0;orthogonalLoop=1;jettySize=auto;html=1;entryX=0.414;entryY=0.972;entryDx=0;entryDy=0;entryPerimeter=0;" edge="1" parent="1" source="MDAO08NL7lkBEBGCFYoP-98" target="MDAO08NL7lkBEBGCFYoP-96">
          <mxGeometry relative="1" as="geometry" />
        </mxCell>
        <mxCell id="MDAO08NL7lkBEBGCFYoP-107" value="booking" style="shape=rhombus;perimeter=rhombusPerimeter;whiteSpace=wrap;html=1;align=center;" vertex="1" parent="1">
          <mxGeometry x="340" y="490" width="120" height="60" as="geometry" />
        </mxCell>
        <mxCell id="MDAO08NL7lkBEBGCFYoP-117" value="" style="endArrow=none;html=1;rounded=0;labelBackgroundColor=default;strokeColor=default;align=center;verticalAlign=middle;fontFamily=Helvetica;fontSize=11;fontColor=default;shape=connector;entryX=0.5;entryY=0;entryDx=0;entryDy=0;" edge="1" parent="1" source="MDAO08NL7lkBEBGCFYoP-33" target="MDAO08NL7lkBEBGCFYoP-107">
          <mxGeometry relative="1" as="geometry">
            <mxPoint x="390" y="480" as="sourcePoint" />
            <mxPoint x="550" y="480" as="targetPoint" />
          </mxGeometry>
        </mxCell>
        <mxCell id="MDAO08NL7lkBEBGCFYoP-118" value="1" style="resizable=0;html=1;whiteSpace=wrap;align=right;verticalAlign=bottom;fontFamily=Helvetica;fontSize=11;fontColor=default;" connectable="0" vertex="1" parent="MDAO08NL7lkBEBGCFYoP-117">
          <mxGeometry x="1" relative="1" as="geometry" />
        </mxCell>
        <mxCell id="MDAO08NL7lkBEBGCFYoP-121" value="" style="endArrow=none;html=1;rounded=0;labelBackgroundColor=default;strokeColor=default;align=center;verticalAlign=middle;fontFamily=Helvetica;fontSize=11;fontColor=default;shape=connector;entryX=0.5;entryY=0;entryDx=0;entryDy=0;" edge="1" parent="1" source="MDAO08NL7lkBEBGCFYoP-42" target="MDAO08NL7lkBEBGCFYoP-107">
          <mxGeometry relative="1" as="geometry">
            <mxPoint x="470" y="420" as="sourcePoint" />
            <mxPoint x="550" y="480" as="targetPoint" />
            <Array as="points">
              <mxPoint x="460" y="450" />
            </Array>
          </mxGeometry>
        </mxCell>
        <mxCell id="MDAO08NL7lkBEBGCFYoP-122" value="1" style="resizable=0;html=1;whiteSpace=wrap;align=right;verticalAlign=bottom;fontFamily=Helvetica;fontSize=11;fontColor=default;" connectable="0" vertex="1" parent="MDAO08NL7lkBEBGCFYoP-121">
          <mxGeometry x="1" relative="1" as="geometry" />
        </mxCell>
        <mxCell id="MDAO08NL7lkBEBGCFYoP-127" value="" style="endArrow=none;html=1;rounded=0;labelBackgroundColor=default;strokeColor=default;align=center;verticalAlign=middle;fontFamily=Helvetica;fontSize=11;fontColor=default;shape=connector;exitX=0;exitY=0.5;exitDx=0;exitDy=0;entryX=1;entryY=0;entryDx=0;entryDy=0;" edge="1" parent="1" source="MDAO08NL7lkBEBGCFYoP-107" target="MDAO08NL7lkBEBGCFYoP-89">
          <mxGeometry relative="1" as="geometry">
            <mxPoint x="323.33333333333326" y="570.0033333333332" as="sourcePoint" />
            <mxPoint x="440" y="661.67" as="targetPoint" />
          </mxGeometry>
        </mxCell>
        <mxCell id="MDAO08NL7lkBEBGCFYoP-128" value="N" style="resizable=0;html=1;whiteSpace=wrap;align=right;verticalAlign=bottom;fontFamily=Helvetica;fontSize=11;fontColor=default;" connectable="0" vertex="1" parent="MDAO08NL7lkBEBGCFYoP-127">
          <mxGeometry x="1" relative="1" as="geometry" />
        </mxCell>
        <mxCell id="MDAO08NL7lkBEBGCFYoP-129" value="" style="endArrow=none;html=1;rounded=0;labelBackgroundColor=default;strokeColor=default;align=center;verticalAlign=middle;fontFamily=Helvetica;fontSize=11;fontColor=default;shape=connector;exitX=0.5;exitY=1;exitDx=0;exitDy=0;entryX=1;entryY=0.5;entryDx=0;entryDy=0;" edge="1" parent="1" source="MDAO08NL7lkBEBGCFYoP-107" target="MDAO08NL7lkBEBGCFYoP-89">
          <mxGeometry relative="1" as="geometry">
            <mxPoint x="390" y="480" as="sourcePoint" />
            <mxPoint x="550" y="480" as="targetPoint" />
          </mxGeometry>
        </mxCell>
        <mxCell id="MDAO08NL7lkBEBGCFYoP-130" value="N" style="resizable=0;html=1;whiteSpace=wrap;align=right;verticalAlign=bottom;fontFamily=Helvetica;fontSize=11;fontColor=default;" connectable="0" vertex="1" parent="MDAO08NL7lkBEBGCFYoP-129">
          <mxGeometry x="1" relative="1" as="geometry" />
        </mxCell>
        <mxCell id="MDAO08NL7lkBEBGCFYoP-131" value="" style="endArrow=none;html=1;rounded=0;labelBackgroundColor=default;strokeColor=default;align=center;verticalAlign=middle;fontFamily=Helvetica;fontSize=11;fontColor=default;shape=connector;exitX=0;exitY=0.5;exitDx=0;exitDy=0;entryX=1;entryY=0.5;entryDx=0;entryDy=0;" edge="1" parent="1" source="MDAO08NL7lkBEBGCFYoP-70" target="MDAO08NL7lkBEBGCFYoP-107">
          <mxGeometry relative="1" as="geometry">
            <mxPoint x="390" y="600" as="sourcePoint" />
            <mxPoint x="550" y="600" as="targetPoint" />
          </mxGeometry>
        </mxCell>
        <mxCell id="MDAO08NL7lkBEBGCFYoP-132" value="1" style="resizable=0;html=1;whiteSpace=wrap;align=right;verticalAlign=bottom;fontFamily=Helvetica;fontSize=11;fontColor=default;" connectable="0" vertex="1" parent="MDAO08NL7lkBEBGCFYoP-131">
          <mxGeometry x="1" relative="1" as="geometry" />
        </mxCell>
        <mxCell id="MDAO08NL7lkBEBGCFYoP-133" value="" style="endArrow=none;html=1;rounded=0;labelBackgroundColor=default;strokeColor=default;align=center;verticalAlign=middle;fontFamily=Helvetica;fontSize=11;fontColor=default;shape=connector;exitX=0.5;exitY=1;exitDx=0;exitDy=0;entryX=1;entryY=0.5;entryDx=0;entryDy=0;" edge="1" parent="1" source="MDAO08NL7lkBEBGCFYoP-107" target="MDAO08NL7lkBEBGCFYoP-89">
          <mxGeometry relative="1" as="geometry">
            <mxPoint x="410" y="630" as="sourcePoint" />
            <mxPoint x="350" y="720" as="targetPoint" />
            <Array as="points">
              <mxPoint x="400" y="670" />
            </Array>
          </mxGeometry>
        </mxCell>
        <mxCell id="MDAO08NL7lkBEBGCFYoP-134" value="N" style="resizable=0;html=1;whiteSpace=wrap;align=right;verticalAlign=bottom;fontFamily=Helvetica;fontSize=11;fontColor=default;" connectable="0" vertex="1" parent="MDAO08NL7lkBEBGCFYoP-133">
          <mxGeometry x="1" relative="1" as="geometry" />
        </mxCell>
        <mxCell id="MDAO08NL7lkBEBGCFYoP-135" value="meal" style="shape=rhombus;perimeter=rhombusPerimeter;whiteSpace=wrap;html=1;align=center;fontFamily=Helvetica;fontSize=11;fontColor=default;" vertex="1" parent="1">
          <mxGeometry x="380" y="910" width="120" height="60" as="geometry" />
        </mxCell>
        <mxCell id="MDAO08NL7lkBEBGCFYoP-136" value="" style="endArrow=none;html=1;rounded=0;labelBackgroundColor=default;strokeColor=default;align=center;verticalAlign=middle;fontFamily=Helvetica;fontSize=11;fontColor=default;shape=connector;entryX=1;entryY=0.5;entryDx=0;entryDy=0;exitX=0;exitY=0.5;exitDx=0;exitDy=0;" edge="1" parent="1" source="MDAO08NL7lkBEBGCFYoP-80" target="MDAO08NL7lkBEBGCFYoP-135">
          <mxGeometry relative="1" as="geometry">
            <mxPoint x="360" y="760" as="sourcePoint" />
            <mxPoint x="520" y="760" as="targetPoint" />
          </mxGeometry>
        </mxCell>
        <mxCell id="MDAO08NL7lkBEBGCFYoP-137" value="1" style="resizable=0;html=1;whiteSpace=wrap;align=right;verticalAlign=bottom;fontFamily=Helvetica;fontSize=11;fontColor=default;" connectable="0" vertex="1" parent="MDAO08NL7lkBEBGCFYoP-136">
          <mxGeometry x="1" relative="1" as="geometry" />
        </mxCell>
        <mxCell id="MDAO08NL7lkBEBGCFYoP-138" value="" style="endArrow=none;html=1;rounded=0;labelBackgroundColor=default;strokeColor=default;align=center;verticalAlign=middle;fontFamily=Helvetica;fontSize=11;fontColor=default;shape=connector;entryX=1;entryY=0.5;entryDx=0;entryDy=0;exitX=0;exitY=0.5;exitDx=0;exitDy=0;" edge="1" parent="1" source="MDAO08NL7lkBEBGCFYoP-135" target="MDAO08NL7lkBEBGCFYoP-96">
          <mxGeometry relative="1" as="geometry">
            <mxPoint x="390" y="910" as="sourcePoint" />
            <mxPoint x="550" y="910" as="targetPoint" />
          </mxGeometry>
        </mxCell>
        <mxCell id="MDAO08NL7lkBEBGCFYoP-139" value="N" style="resizable=0;html=1;whiteSpace=wrap;align=right;verticalAlign=bottom;fontFamily=Helvetica;fontSize=11;fontColor=default;" connectable="0" vertex="1" parent="MDAO08NL7lkBEBGCFYoP-138">
          <mxGeometry x="1" relative="1" as="geometry" />
        </mxCell>
        <mxCell id="MDAO08NL7lkBEBGCFYoP-140" value="eat" style="shape=rhombus;perimeter=rhombusPerimeter;whiteSpace=wrap;html=1;align=center;fontFamily=Helvetica;fontSize=11;fontColor=default;" vertex="1" parent="1">
          <mxGeometry x="300" y="770" width="120" height="60" as="geometry" />
        </mxCell>
        <mxCell id="MDAO08NL7lkBEBGCFYoP-141" value="" style="endArrow=none;html=1;rounded=0;labelBackgroundColor=default;strokeColor=default;align=center;verticalAlign=middle;fontFamily=Helvetica;fontSize=11;fontColor=default;shape=connector;exitX=0.437;exitY=0.989;exitDx=0;exitDy=0;exitPerimeter=0;entryX=0.417;entryY=0;entryDx=0;entryDy=0;entryPerimeter=0;" edge="1" parent="1" source="MDAO08NL7lkBEBGCFYoP-89" target="MDAO08NL7lkBEBGCFYoP-140">
          <mxGeometry relative="1" as="geometry">
            <mxPoint x="300" y="750" as="sourcePoint" />
            <mxPoint x="460" y="750" as="targetPoint" />
          </mxGeometry>
        </mxCell>
        <mxCell id="MDAO08NL7lkBEBGCFYoP-142" value="1" style="resizable=0;html=1;whiteSpace=wrap;align=right;verticalAlign=bottom;fontFamily=Helvetica;fontSize=11;fontColor=default;" connectable="0" vertex="1" parent="MDAO08NL7lkBEBGCFYoP-141">
          <mxGeometry x="1" relative="1" as="geometry" />
        </mxCell>
        <mxCell id="MDAO08NL7lkBEBGCFYoP-143" value="" style="endArrow=none;html=1;rounded=0;labelBackgroundColor=default;strokeColor=default;align=center;verticalAlign=middle;fontFamily=Helvetica;fontSize=11;fontColor=default;shape=connector;exitX=0.431;exitY=0.999;exitDx=0;exitDy=0;exitPerimeter=0;" edge="1" parent="1" source="MDAO08NL7lkBEBGCFYoP-140" target="MDAO08NL7lkBEBGCFYoP-96">
          <mxGeometry relative="1" as="geometry">
            <mxPoint x="240" y="870" as="sourcePoint" />
            <mxPoint x="400" y="870" as="targetPoint" />
          </mxGeometry>
        </mxCell>
        <mxCell id="MDAO08NL7lkBEBGCFYoP-144" value="N" style="resizable=0;html=1;whiteSpace=wrap;align=right;verticalAlign=bottom;fontFamily=Helvetica;fontSize=11;fontColor=default;" connectable="0" vertex="1" parent="MDAO08NL7lkBEBGCFYoP-143">
          <mxGeometry x="1" relative="1" as="geometry" />
        </mxCell>
      </root>
    </mxGraphModel>
  </diagram>
</mxfile>
